<mxfile host="app.diagrams.net" agent="Mozilla/5.0 (Windows NT 10.0; Win64; x64) AppleWebKit/537.36 (KHTML, like Gecko) Chrome/141.0.0.0 Safari/537.36" version="28.2.8">
  <diagram name="페이지-1" id="v6TvnZVllNlz83189JZC">
    <mxGraphModel dx="1937" dy="872" grid="1" gridSize="10" guides="1" tooltips="1" connect="1" arrows="1" fold="1" page="1" pageScale="1" pageWidth="827" pageHeight="1169" math="0" shadow="0">
      <root>
        <mxCell id="0" />
        <mxCell id="1" parent="0" />
        <object placeholders="1" c4Name="인터넷 쇼핑몰" c4Type="SystemScopeBoundary" c4Application="" label="&lt;font style=&quot;font-size: 16px&quot;&gt;&lt;b&gt;&lt;div style=&quot;text-align: left&quot;&gt;%c4Name%&lt;/div&gt;&lt;/b&gt;&lt;/font&gt;&lt;div style=&quot;text-align: left&quot;&gt;[%c4Application%]&lt;/div&gt;" id="ozay2ZsU4IeSCq6HCA4j-1">
          <mxCell style="rounded=1;fontSize=11;whiteSpace=wrap;html=1;dashed=1;arcSize=20;fillColor=none;strokeColor=#666666;fontColor=#333333;labelBackgroundColor=none;align=left;verticalAlign=bottom;labelBorderColor=none;spacingTop=0;spacing=10;dashPattern=8 4;metaEdit=1;rotatable=0;perimeter=rectanglePerimeter;noLabel=0;labelPadding=0;allowArrows=0;connectable=0;expand=0;recursiveResize=0;editable=1;pointerEvents=0;absoluteArcSize=1;points=[[0.25,0,0],[0.5,0,0],[0.75,0,0],[1,0.25,0],[1,0.5,0],[1,0.75,0],[0.75,1,0],[0.5,1,0],[0.25,1,0],[0,0.75,0],[0,0.5,0],[0,0.25,0]];" vertex="1" parent="1">
            <mxGeometry x="80" y="120" width="680" height="710" as="geometry" />
          </mxCell>
        </object>
        <mxCell id="ozay2ZsU4IeSCq6HCA4j-2" value="사용자" style="shape=umlActor;html=1;verticalLabelPosition=bottom;verticalAlign=top;align=center;" vertex="1" parent="1">
          <mxGeometry x="-30" y="490" width="30" height="60" as="geometry" />
        </mxCell>
        <mxCell id="ozay2ZsU4IeSCq6HCA4j-3" value="관리자" style="shape=umlActor;html=1;verticalLabelPosition=bottom;verticalAlign=top;align=center;" vertex="1" parent="1">
          <mxGeometry x="840" y="490" width="30" height="60" as="geometry" />
        </mxCell>
        <mxCell id="ozay2ZsU4IeSCq6HCA4j-4" value="SMS 시스템" style="shape=umlActor;html=1;verticalLabelPosition=bottom;verticalAlign=top;align=center;" vertex="1" parent="1">
          <mxGeometry x="405" y="880" width="30" height="60" as="geometry" />
        </mxCell>
        <mxCell id="ozay2ZsU4IeSCq6HCA4j-7" value="로그인" style="ellipse;whiteSpace=wrap;html=1;aspect=fixed;" vertex="1" parent="1">
          <mxGeometry x="120" y="160" width="110" height="55" as="geometry" />
        </mxCell>
        <mxCell id="ozay2ZsU4IeSCq6HCA4j-9" value="회원가입" style="ellipse;whiteSpace=wrap;html=1;aspect=fixed;" vertex="1" parent="1">
          <mxGeometry x="120" y="240" width="110" height="55" as="geometry" />
        </mxCell>
        <mxCell id="ozay2ZsU4IeSCq6HCA4j-10" value="회원 정보&lt;br&gt;&lt;div&gt;조회&lt;/div&gt;" style="ellipse;whiteSpace=wrap;html=1;aspect=fixed;" vertex="1" parent="1">
          <mxGeometry x="365" y="161" width="110" height="55" as="geometry" />
        </mxCell>
        <mxCell id="ozay2ZsU4IeSCq6HCA4j-11" value="회원 수정" style="ellipse;whiteSpace=wrap;html=1;aspect=fixed;" vertex="1" parent="1">
          <mxGeometry x="304" y="268.5" width="110" height="55" as="geometry" />
        </mxCell>
        <mxCell id="ozay2ZsU4IeSCq6HCA4j-12" value="회원 탈퇴" style="ellipse;whiteSpace=wrap;html=1;aspect=fixed;" vertex="1" parent="1">
          <mxGeometry x="428" y="268.5" width="110" height="55" as="geometry" />
        </mxCell>
        <mxCell id="ozay2ZsU4IeSCq6HCA4j-15" value="" style="endArrow=open;endFill=1;endSize=12;html=1;rounded=0;entryX=0;entryY=0.5;entryDx=0;entryDy=0;" edge="1" parent="1" source="ozay2ZsU4IeSCq6HCA4j-2" target="ozay2ZsU4IeSCq6HCA4j-7">
          <mxGeometry width="160" relative="1" as="geometry">
            <mxPoint x="60" y="440" as="sourcePoint" />
            <mxPoint x="220" y="440" as="targetPoint" />
          </mxGeometry>
        </mxCell>
        <mxCell id="ozay2ZsU4IeSCq6HCA4j-16" value="" style="endArrow=open;endFill=1;endSize=12;html=1;rounded=0;entryX=0.045;entryY=0.655;entryDx=0;entryDy=0;entryPerimeter=0;" edge="1" parent="1" source="ozay2ZsU4IeSCq6HCA4j-2" target="ozay2ZsU4IeSCq6HCA4j-9">
          <mxGeometry width="160" relative="1" as="geometry">
            <mxPoint x="120" y="842" as="sourcePoint" />
            <mxPoint x="210" y="320" as="targetPoint" />
          </mxGeometry>
        </mxCell>
        <mxCell id="ozay2ZsU4IeSCq6HCA4j-17" value="" style="endArrow=open;endFill=1;endSize=12;html=1;rounded=0;entryX=0;entryY=0.5;entryDx=0;entryDy=0;" edge="1" parent="1" source="ozay2ZsU4IeSCq6HCA4j-2" target="ozay2ZsU4IeSCq6HCA4j-10">
          <mxGeometry width="160" relative="1" as="geometry">
            <mxPoint x="240" y="902" as="sourcePoint" />
            <mxPoint x="372" y="600" as="targetPoint" />
          </mxGeometry>
        </mxCell>
        <mxCell id="ozay2ZsU4IeSCq6HCA4j-18" value="" style="endArrow=open;endFill=1;endSize=12;html=1;rounded=0;entryX=0.964;entryY=0.364;entryDx=0;entryDy=0;entryPerimeter=0;" edge="1" parent="1" source="ozay2ZsU4IeSCq6HCA4j-3" target="ozay2ZsU4IeSCq6HCA4j-10">
          <mxGeometry width="160" relative="1" as="geometry">
            <mxPoint x="750" y="722" as="sourcePoint" />
            <mxPoint x="882" y="420" as="targetPoint" />
          </mxGeometry>
        </mxCell>
        <mxCell id="ozay2ZsU4IeSCq6HCA4j-19" value="&amp;lt;&amp;lt;extend&amp;gt;&amp;gt;" style="html=1;verticalAlign=bottom;labelBackgroundColor=none;endArrow=open;endFill=0;dashed=1;rounded=0;entryX=0.309;entryY=0.945;entryDx=0;entryDy=0;entryPerimeter=0;exitX=0.5;exitY=0;exitDx=0;exitDy=0;" edge="1" parent="1" source="ozay2ZsU4IeSCq6HCA4j-11" target="ozay2ZsU4IeSCq6HCA4j-10">
          <mxGeometry width="160" relative="1" as="geometry">
            <mxPoint x="360" y="351" as="sourcePoint" />
            <mxPoint x="520" y="351" as="targetPoint" />
          </mxGeometry>
        </mxCell>
        <mxCell id="ozay2ZsU4IeSCq6HCA4j-20" value="&amp;lt;&amp;lt;extend&amp;gt;&amp;gt;" style="html=1;verticalAlign=bottom;labelBackgroundColor=none;endArrow=open;endFill=0;dashed=1;rounded=0;entryX=0.664;entryY=0.927;entryDx=0;entryDy=0;entryPerimeter=0;exitX=0.427;exitY=0.009;exitDx=0;exitDy=0;exitPerimeter=0;" edge="1" parent="1" source="ozay2ZsU4IeSCq6HCA4j-12" target="ozay2ZsU4IeSCq6HCA4j-10">
          <mxGeometry width="160" relative="1" as="geometry">
            <mxPoint x="420" y="457" as="sourcePoint" />
            <mxPoint x="460" y="401" as="targetPoint" />
          </mxGeometry>
        </mxCell>
        <mxCell id="ozay2ZsU4IeSCq6HCA4j-21" value="상품 목록 조회" style="ellipse;whiteSpace=wrap;html=1;aspect=fixed;" vertex="1" parent="1">
          <mxGeometry x="364" y="350" width="110" height="55" as="geometry" />
        </mxCell>
        <mxCell id="ozay2ZsU4IeSCq6HCA4j-22" value="상품 상세 조회" style="ellipse;whiteSpace=wrap;html=1;aspect=fixed;" vertex="1" parent="1">
          <mxGeometry x="303" y="457.5" width="110" height="55" as="geometry" />
        </mxCell>
        <mxCell id="ozay2ZsU4IeSCq6HCA4j-23" value="상품 검색" style="ellipse;whiteSpace=wrap;html=1;aspect=fixed;" vertex="1" parent="1">
          <mxGeometry x="427" y="457.5" width="110" height="55" as="geometry" />
        </mxCell>
        <mxCell id="ozay2ZsU4IeSCq6HCA4j-24" value="&amp;lt;&amp;lt;extend&amp;gt;&amp;gt;" style="html=1;verticalAlign=bottom;labelBackgroundColor=none;endArrow=open;endFill=0;dashed=1;rounded=0;entryX=0.309;entryY=0.945;entryDx=0;entryDy=0;entryPerimeter=0;exitX=0.5;exitY=0;exitDx=0;exitDy=0;" edge="1" parent="1" source="ozay2ZsU4IeSCq6HCA4j-22" target="ozay2ZsU4IeSCq6HCA4j-21">
          <mxGeometry width="160" relative="1" as="geometry">
            <mxPoint x="359" y="540" as="sourcePoint" />
            <mxPoint x="519" y="540" as="targetPoint" />
          </mxGeometry>
        </mxCell>
        <mxCell id="ozay2ZsU4IeSCq6HCA4j-25" value="&amp;lt;&amp;lt;extend&amp;gt;&amp;gt;" style="html=1;verticalAlign=bottom;labelBackgroundColor=none;endArrow=open;endFill=0;dashed=1;rounded=0;entryX=0.664;entryY=0.927;entryDx=0;entryDy=0;entryPerimeter=0;exitX=0.427;exitY=0.009;exitDx=0;exitDy=0;exitPerimeter=0;" edge="1" parent="1" source="ozay2ZsU4IeSCq6HCA4j-23" target="ozay2ZsU4IeSCq6HCA4j-21">
          <mxGeometry width="160" relative="1" as="geometry">
            <mxPoint x="419" y="646" as="sourcePoint" />
            <mxPoint x="459" y="590" as="targetPoint" />
          </mxGeometry>
        </mxCell>
        <mxCell id="ozay2ZsU4IeSCq6HCA4j-26" value="상품 구매" style="ellipse;whiteSpace=wrap;html=1;aspect=fixed;" vertex="1" parent="1">
          <mxGeometry x="120" y="440.5" width="110" height="55" as="geometry" />
        </mxCell>
        <mxCell id="ozay2ZsU4IeSCq6HCA4j-27" value="상품 결제" style="ellipse;whiteSpace=wrap;html=1;aspect=fixed;" vertex="1" parent="1">
          <mxGeometry x="365" y="578.5" width="110" height="55" as="geometry" />
        </mxCell>
        <mxCell id="ozay2ZsU4IeSCq6HCA4j-28" value="" style="endArrow=open;endFill=1;endSize=12;html=1;rounded=0;exitX=0.5;exitY=1;exitDx=0;exitDy=0;" edge="1" parent="1" source="ozay2ZsU4IeSCq6HCA4j-27" target="ozay2ZsU4IeSCq6HCA4j-4">
          <mxGeometry width="160" relative="1" as="geometry">
            <mxPoint x="70" y="932" as="sourcePoint" />
            <mxPoint x="420" y="870" as="targetPoint" />
          </mxGeometry>
        </mxCell>
        <mxCell id="ozay2ZsU4IeSCq6HCA4j-29" value="&amp;lt;&amp;lt;include&amp;gt;&amp;gt;" style="html=1;verticalAlign=bottom;labelBackgroundColor=none;endArrow=open;endFill=0;dashed=1;rounded=0;entryX=0.055;entryY=0.755;entryDx=0;entryDy=0;entryPerimeter=0;" edge="1" parent="1" source="ozay2ZsU4IeSCq6HCA4j-26" target="ozay2ZsU4IeSCq6HCA4j-22">
          <mxGeometry width="160" relative="1" as="geometry">
            <mxPoint x="230" y="570" as="sourcePoint" />
            <mxPoint x="390" y="570" as="targetPoint" />
          </mxGeometry>
        </mxCell>
        <mxCell id="ozay2ZsU4IeSCq6HCA4j-30" value="&amp;lt;&amp;lt;include&amp;gt;&amp;gt;" style="html=1;verticalAlign=bottom;labelBackgroundColor=none;endArrow=open;endFill=0;dashed=1;rounded=0;" edge="1" parent="1" source="ozay2ZsU4IeSCq6HCA4j-26" target="ozay2ZsU4IeSCq6HCA4j-27">
          <mxGeometry width="160" relative="1" as="geometry">
            <mxPoint x="300" y="653" as="sourcePoint" />
            <mxPoint x="385" y="610" as="targetPoint" />
          </mxGeometry>
        </mxCell>
        <mxCell id="ozay2ZsU4IeSCq6HCA4j-31" value="상품 등록" style="ellipse;whiteSpace=wrap;html=1;aspect=fixed;" vertex="1" parent="1">
          <mxGeometry x="610" y="400" width="110" height="55" as="geometry" />
        </mxCell>
        <mxCell id="ozay2ZsU4IeSCq6HCA4j-32" value="상품 수정" style="ellipse;whiteSpace=wrap;html=1;aspect=fixed;" vertex="1" parent="1">
          <mxGeometry x="610" y="480" width="110" height="55" as="geometry" />
        </mxCell>
        <mxCell id="ozay2ZsU4IeSCq6HCA4j-33" value="상품 삭제" style="ellipse;whiteSpace=wrap;html=1;aspect=fixed;" vertex="1" parent="1">
          <mxGeometry x="610" y="560" width="110" height="55" as="geometry" />
        </mxCell>
        <mxCell id="ozay2ZsU4IeSCq6HCA4j-34" value="" style="endArrow=open;endFill=1;endSize=12;html=1;rounded=0;" edge="1" parent="1" source="ozay2ZsU4IeSCq6HCA4j-3" target="ozay2ZsU4IeSCq6HCA4j-31">
          <mxGeometry width="160" relative="1" as="geometry">
            <mxPoint x="1052.87" y="641.84" as="sourcePoint" />
            <mxPoint x="536.9964804239445" y="373.1602641915091" as="targetPoint" />
          </mxGeometry>
        </mxCell>
        <mxCell id="ozay2ZsU4IeSCq6HCA4j-35" value="" style="endArrow=open;endFill=1;endSize=12;html=1;rounded=0;" edge="1" parent="1" source="ozay2ZsU4IeSCq6HCA4j-3" target="ozay2ZsU4IeSCq6HCA4j-32">
          <mxGeometry width="160" relative="1" as="geometry">
            <mxPoint x="1149" y="906" as="sourcePoint" />
            <mxPoint x="780" y="580" as="targetPoint" />
          </mxGeometry>
        </mxCell>
        <mxCell id="ozay2ZsU4IeSCq6HCA4j-36" value="" style="endArrow=open;endFill=1;endSize=12;html=1;rounded=0;" edge="1" parent="1" source="ozay2ZsU4IeSCq6HCA4j-3" target="ozay2ZsU4IeSCq6HCA4j-33">
          <mxGeometry width="160" relative="1" as="geometry">
            <mxPoint x="1199" y="986" as="sourcePoint" />
            <mxPoint x="830" y="660" as="targetPoint" />
          </mxGeometry>
        </mxCell>
        <mxCell id="ozay2ZsU4IeSCq6HCA4j-37" value="리뷰 조회" style="ellipse;whiteSpace=wrap;html=1;aspect=fixed;" vertex="1" parent="1">
          <mxGeometry x="120" y="680" width="110" height="55" as="geometry" />
        </mxCell>
        <mxCell id="ozay2ZsU4IeSCq6HCA4j-38" value="리뷰 등록" style="ellipse;whiteSpace=wrap;html=1;aspect=fixed;" vertex="1" parent="1">
          <mxGeometry x="120" y="600" width="110" height="55" as="geometry" />
        </mxCell>
        <mxCell id="ozay2ZsU4IeSCq6HCA4j-39" value="사진 등록" style="ellipse;whiteSpace=wrap;html=1;aspect=fixed;" vertex="1" parent="1">
          <mxGeometry x="280" y="680" width="110" height="55" as="geometry" />
        </mxCell>
        <mxCell id="ozay2ZsU4IeSCq6HCA4j-40" value="리뷰 검색" style="ellipse;whiteSpace=wrap;html=1;aspect=fixed;" vertex="1" parent="1">
          <mxGeometry x="280" y="760" width="110" height="55" as="geometry" />
        </mxCell>
        <mxCell id="ozay2ZsU4IeSCq6HCA4j-41" value="&amp;lt;&amp;lt;include&amp;gt;&amp;gt;" style="html=1;verticalAlign=bottom;labelBackgroundColor=none;endArrow=open;endFill=0;dashed=1;rounded=0;" edge="1" parent="1" source="ozay2ZsU4IeSCq6HCA4j-38" target="ozay2ZsU4IeSCq6HCA4j-27">
          <mxGeometry width="160" relative="1" as="geometry">
            <mxPoint x="-30" y="690" as="sourcePoint" />
            <mxPoint x="141" y="786" as="targetPoint" />
          </mxGeometry>
        </mxCell>
        <mxCell id="ozay2ZsU4IeSCq6HCA4j-42" value="&amp;lt;&amp;lt;extend&amp;gt;&amp;gt;" style="html=1;verticalAlign=bottom;labelBackgroundColor=none;endArrow=open;endFill=0;dashed=1;rounded=0;" edge="1" parent="1" source="ozay2ZsU4IeSCq6HCA4j-39" target="ozay2ZsU4IeSCq6HCA4j-38">
          <mxGeometry width="160" relative="1" as="geometry">
            <mxPoint x="277" y="797" as="sourcePoint" />
            <mxPoint x="240" y="740" as="targetPoint" />
          </mxGeometry>
        </mxCell>
        <mxCell id="ozay2ZsU4IeSCq6HCA4j-43" value="&amp;lt;&amp;lt;extend&amp;gt;&amp;gt;" style="html=1;verticalAlign=bottom;labelBackgroundColor=none;endArrow=open;endFill=0;dashed=1;rounded=0;" edge="1" parent="1" source="ozay2ZsU4IeSCq6HCA4j-40" target="ozay2ZsU4IeSCq6HCA4j-37">
          <mxGeometry width="160" relative="1" as="geometry">
            <mxPoint x="257" y="817" as="sourcePoint" />
            <mxPoint x="220" y="760" as="targetPoint" />
          </mxGeometry>
        </mxCell>
        <mxCell id="ozay2ZsU4IeSCq6HCA4j-44" value="통계 조회" style="ellipse;whiteSpace=wrap;html=1;aspect=fixed;" vertex="1" parent="1">
          <mxGeometry x="547" y="645" width="110" height="55" as="geometry" />
        </mxCell>
        <mxCell id="ozay2ZsU4IeSCq6HCA4j-45" value="방문자 수&lt;div&gt;통계 조회&lt;/div&gt;" style="ellipse;whiteSpace=wrap;html=1;aspect=fixed;" vertex="1" parent="1">
          <mxGeometry x="486" y="752.5" width="110" height="55" as="geometry" />
        </mxCell>
        <mxCell id="ozay2ZsU4IeSCq6HCA4j-46" value="상품별 판매&lt;div&gt;통계 조회&lt;/div&gt;" style="ellipse;whiteSpace=wrap;html=1;aspect=fixed;" vertex="1" parent="1">
          <mxGeometry x="610" y="752.5" width="110" height="55" as="geometry" />
        </mxCell>
        <mxCell id="ozay2ZsU4IeSCq6HCA4j-47" value="&amp;lt;&amp;lt;extend&amp;gt;&amp;gt;" style="html=1;verticalAlign=bottom;labelBackgroundColor=none;endArrow=open;endFill=0;dashed=1;rounded=0;entryX=0.309;entryY=0.945;entryDx=0;entryDy=0;entryPerimeter=0;exitX=0.5;exitY=0;exitDx=0;exitDy=0;" edge="1" parent="1" source="ozay2ZsU4IeSCq6HCA4j-45" target="ozay2ZsU4IeSCq6HCA4j-44">
          <mxGeometry width="160" relative="1" as="geometry">
            <mxPoint x="542" y="835" as="sourcePoint" />
            <mxPoint x="702" y="835" as="targetPoint" />
          </mxGeometry>
        </mxCell>
        <mxCell id="ozay2ZsU4IeSCq6HCA4j-48" value="&amp;lt;&amp;lt;extend&amp;gt;&amp;gt;" style="html=1;verticalAlign=bottom;labelBackgroundColor=none;endArrow=open;endFill=0;dashed=1;rounded=0;entryX=0.664;entryY=0.927;entryDx=0;entryDy=0;entryPerimeter=0;exitX=0.427;exitY=0.009;exitDx=0;exitDy=0;exitPerimeter=0;" edge="1" parent="1" source="ozay2ZsU4IeSCq6HCA4j-46" target="ozay2ZsU4IeSCq6HCA4j-44">
          <mxGeometry width="160" relative="1" as="geometry">
            <mxPoint x="602" y="941" as="sourcePoint" />
            <mxPoint x="642" y="885" as="targetPoint" />
          </mxGeometry>
        </mxCell>
        <mxCell id="ozay2ZsU4IeSCq6HCA4j-49" value="" style="endArrow=open;endFill=1;endSize=12;html=1;rounded=0;" edge="1" parent="1" source="ozay2ZsU4IeSCq6HCA4j-3" target="ozay2ZsU4IeSCq6HCA4j-44">
          <mxGeometry width="160" relative="1" as="geometry">
            <mxPoint x="970" y="700" as="sourcePoint" />
            <mxPoint x="840" y="747" as="targetPoint" />
          </mxGeometry>
        </mxCell>
        <mxCell id="ozay2ZsU4IeSCq6HCA4j-50" value="" style="endArrow=open;endFill=1;endSize=12;html=1;rounded=0;" edge="1" parent="1" source="ozay2ZsU4IeSCq6HCA4j-2" target="ozay2ZsU4IeSCq6HCA4j-38">
          <mxGeometry width="160" relative="1" as="geometry">
            <mxPoint x="140" y="640" as="sourcePoint" />
            <mxPoint x="10" y="687" as="targetPoint" />
          </mxGeometry>
        </mxCell>
        <mxCell id="ozay2ZsU4IeSCq6HCA4j-51" value="" style="endArrow=open;endFill=1;endSize=12;html=1;rounded=0;" edge="1" parent="1" source="ozay2ZsU4IeSCq6HCA4j-2" target="ozay2ZsU4IeSCq6HCA4j-37">
          <mxGeometry width="160" relative="1" as="geometry">
            <mxPoint x="140" y="670" as="sourcePoint" />
            <mxPoint x="10" y="717" as="targetPoint" />
          </mxGeometry>
        </mxCell>
      </root>
    </mxGraphModel>
  </diagram>
</mxfile>
